<svg width="64" height="64" viewBox="0 0 64 64" fill="none" xmlns="http://www.w3.org/2000/svg">
<path d="M32 56C45.2548 56 56 45.2548 56 32C56 18.7452 45.2548 8 32 8C18.7452 8 8 18.7452 8 32C8 45.2548 18.7452 56 32 56Z" stroke="#861BE3" stroke-width="2.93333" stroke-linecap="round" stroke-linejoin="round"/>
<path fill-rule="evenodd" clip-rule="evenodd" d="M22.6 17.735C19.0295 17.735 16.135 20.6295 16.135 24.2V35C16.135 38.5705 19.0295 41.465 22.6 41.465H27.535V44.0699H21.465C20.6559 44.0699 20 44.7258 20 45.5349C20 46.344 20.6559 46.9999 21.465 46.9999H42.535C43.3441 46.9999 44 46.344 44 45.5349C44 44.7258 43.3441 44.0699 42.535 44.0699H36.965V41.465H39C39.8091 41.465 40.465 40.8091 40.465 40C40.465 39.1909 39.8091 38.535 39 38.535H22.6C20.6477 38.535 19.065 36.9523 19.065 35V24.2C19.065 22.2477 20.6477 20.665 22.6 20.665H41.4C43.3523 20.665 44.935 22.2477 44.935 24.2V32.5C44.935 33.3091 45.5909 33.965 46.4 33.965C47.2091 33.965 47.865 33.3091 47.865 32.5V24.2C47.865 20.6295 44.9705 17.735 41.4 17.735H22.6ZM34.035 41.465H30.465V44.0699H34.035V41.465Z" fill="#861BE3"/>
<circle cx="36" cy="29.6" r="5.735" stroke="#861BE3" stroke-width="2.93"/>
<path d="M45.364 41.036C45.9362 41.6081 46.8637 41.6081 47.4359 41.036C48.008 40.4638 48.008 39.5363 47.4359 38.9641L45.364 41.036ZM38.164 33.836L45.364 41.036L47.4359 38.9641L40.2359 31.7641L38.164 33.836Z" fill="#861BE3"/>
</svg>
