<svg width="64" height="64" viewBox="0 0 64 64" fill="none" xmlns="http://www.w3.org/2000/svg">
<path d="M32 56C45.2548 56 56 45.2548 56 32C56 18.7452 45.2548 8 32 8C18.7452 8 8 18.7452 8 32C8 45.2548 18.7452 56 32 56Z" stroke="#861BE3" stroke-width="2.93333" stroke-linecap="round" stroke-linejoin="round"/>
<path fill-rule="evenodd" clip-rule="evenodd" d="M32.1462 21.8198C32.1283 21.811 32.1073 21.811 32.0893 21.8198L18.2316 28.6337C18.2155 28.6417 18.2089 28.6476 18.2074 28.649C18.2055 28.6507 18.2046 28.652 18.2036 28.6536C18.2011 28.658 18.1954 28.6712 18.1956 28.6921C18.1958 28.7131 18.2017 28.7262 18.2044 28.7305C18.2054 28.7321 18.2063 28.7334 18.2082 28.735C18.2098 28.7364 18.2165 28.7423 18.2327 28.7499L32.0904 35.2393C32.1078 35.2474 32.1278 35.2474 32.1451 35.2393L46.0028 28.7499C46.0191 28.7423 46.0258 28.7364 46.0273 28.735C46.0284 28.7341 46.0292 28.7333 46.0298 28.7325L46.0312 28.7305C46.0338 28.7262 46.0397 28.7131 46.0399 28.6921C46.0401 28.6712 46.0344 28.658 46.0319 28.6536L46.0303 28.6513L46.0282 28.649C46.0266 28.6476 46.02 28.6417 46.0039 28.6337L32.1462 21.8198ZM30.7965 19.1905C31.6297 18.7808 32.6058 18.7808 33.439 19.1905L47.2968 26.0044C48.6171 26.6536 49.1537 28.0287 48.9147 29.2708H48.9414V38.3682C48.9414 39.1773 48.2855 39.8332 47.4764 39.8332C46.6673 39.8332 46.0114 39.1773 46.0114 38.3682V31.9812L43.8101 33.0121L44.4932 36.883C44.7235 38.188 44.0687 39.4891 42.8835 40.0817L33.4465 44.8002C32.615 45.216 31.6375 45.2219 30.801 44.8163L21.1653 40.1445C19.8484 39.506 19.186 38.0092 19.5989 36.6051L20.6278 33.1068L16.9901 31.4033C14.7149 30.3378 14.6842 27.113 16.9388 26.0044L30.7965 19.1905ZM33.3877 37.8928L41.0619 34.299L41.6078 37.3922C41.6128 37.4203 41.5987 37.4483 41.5732 37.461L32.1362 42.1795C32.1183 42.1885 32.0973 42.1886 32.0793 42.1799L22.4436 37.508C22.4152 37.4943 22.401 37.4621 22.4099 37.4319L23.3122 34.3639L30.8478 37.8928C31.6525 38.2696 32.583 38.2696 33.3877 37.8928Z" fill="#861BE3"/>
</svg>
