<svg width="64" height="64" viewBox="0 0 64 64" fill="none" xmlns="http://www.w3.org/2000/svg">
<path d="M32 56C45.2548 56 56 45.2548 56 32C56 18.7452 45.2548 8 32 8C18.7452 8 8 18.7452 8 32C8 45.2548 18.7452 56 32 56Z" stroke="#861BE3" stroke-width="2.93333" stroke-linecap="round" stroke-linejoin="round"/>
<rect x="18.1913" y="23.4276" width="27.6175" height="19.9811" rx="1.80873" stroke="#861BE3" stroke-width="2.928"/>
<path d="M28.0094 20.8727C28.0094 19.8738 28.8192 19.064 29.8181 19.064H34.1818C35.1807 19.064 35.9905 19.8738 35.9905 20.8727V22.6814H28.0094V20.8727Z" stroke="#861BE3" stroke-width="2.928"/>
<rect x="28.7273" y="30.691" width="6.54545" height="5.45455" rx="2.18182" fill="#861BE3"/>
<path d="M18.1913 25.2364C18.1913 24.2374 19.0011 23.4276 20 23.4276H44C44.999 23.4276 45.8088 24.2374 45.8088 25.2364V27.4182C45.8088 29.6221 44.0221 31.4087 41.8182 31.4087H22.1818C19.9779 31.4087 18.1913 29.6221 18.1913 27.4182V25.2364Z" stroke="#861BE3" stroke-width="2.928"/>
</svg>
