<svg width="64" height="64" viewBox="0 0 64 64" fill="none" xmlns="http://www.w3.org/2000/svg">
<path d="M32 56C45.2548 56 56 45.2548 56 32C56 18.7452 45.2548 8 32 8C18.7452 8 8 18.7452 8 32C8 45.2548 18.7452 56 32 56Z" stroke="#861BE3" stroke-width="2.93333" stroke-linecap="round" stroke-linejoin="round"/>
<path fill-rule="evenodd" clip-rule="evenodd" d="M21 20.93H43C44.1432 20.93 45.07 21.8568 45.07 23V36C45.07 37.1432 44.1432 38.07 43 38.07H21C19.8568 38.07 18.93 37.1432 18.93 36V23C18.93 21.8568 19.8568 20.93 21 20.93ZM16 23C16 20.2386 18.2386 18 21 18H43C45.7614 18 48 20.2386 48 23V36C48 38.7614 45.7614 41 43 41H36.965V44.07H42.535C43.3441 44.07 44 44.7259 44 45.535C44 46.3441 43.3441 47 42.535 47H21.465C20.6559 47 20 46.3441 20 45.535C20 44.7259 20.6559 44.07 21.465 44.07H27.535V41H21C18.2386 41 16 38.7614 16 36V23ZM34.035 44.07V41H30.465V44.07H34.035Z" fill="#861BE3"/>
</svg>
