<svg width="219" height="221" viewBox="0 0 219 221" fill="none" xmlns="http://www.w3.org/2000/svg">
<path fill-rule="evenodd" clip-rule="evenodd" d="M199.441 0C196.564 0 194.232 2.3319 194.232 5.20846L194.232 16.9275C194.232 30.5997 182.5 37.7614 172.071 37.7614H140.777C136.462 37.7614 132.964 41.2592 132.964 45.5741L132.964 79.4291C132.964 91.1481 121.232 97.6587 112.107 97.6587H101.673C98.7961 97.6587 96.4642 99.9906 96.4642 102.867V115.919C96.4476 126.969 87.3309 134.118 78.2142 134.118H65.1727C62.2962 134.118 59.9643 136.45 59.9643 139.326V151.124C59.9284 165.386 50.1648 169.927 37.8037 170.577L7.8127 170.577C3.49786 170.577 0 174.075 0 178.39V212.245C0 216.56 3.49785 220.058 7.81269 220.058H41.723C46.0378 220.058 49.5357 216.56 49.5357 212.245V180.994L49.5358 180.994C49.5358 171.235 57.3466 160.175 68.4151 160.16L68.4376 160.16L80.8272 160.16C83.7038 160.16 86.0357 157.828 86.0357 154.952V143.202C86.0551 130.201 98.4242 123.701 104.286 123.701H116.024C118.9 123.701 121.232 121.369 121.232 118.493L121.232 108.076C121.232 93.1013 132.312 88.5439 142.089 88.5439H175.991C180.306 88.5439 183.804 85.0461 183.804 80.7312V49.4049C183.831 35.7723 191.33 26.0423 202.705 26.0423H213.792C216.668 26.0423 219 23.7104 219 20.8339V5.20847C219 2.33191 216.668 0 213.792 0H199.441Z" fill="#861BE3"/>
</svg>
